<svg width="190" height="190" viewBox="0 0 190 190" fill="none" xmlns="http://www.w3.org/2000/svg">
<g filter="url(#filter0_ii_1329_56238)">
<path fill-rule="evenodd" clip-rule="evenodd" d="M94.8649 189.73C147.257 189.73 189.73 147.257 189.73 94.8649C189.73 42.4724 147.257 0 94.8649 0C42.4724 0 0 42.4724 0 94.8649C0 147.257 42.4724 189.73 94.8649 189.73ZM94.866 165.143C133.679 165.143 165.144 133.678 165.144 94.8649C165.144 56.0515 133.679 24.5871 94.866 24.5871C56.0526 24.5871 24.5882 56.0515 24.5882 94.8649C24.5882 133.678 56.0526 165.143 94.866 165.143Z" fill="url(#paint0_angular_1329_56238)"/>
</g>
<path d="M96.0347 32.2539H97.5347V38.8651H96.0347V32.2539Z" fill="#DBE4F0"/>
<path d="M141.405 50.415L142.76 51.7703L136.786 57.7437L135.431 56.3884L141.405 50.415Z" fill="#DBE4F0"/>
<path d="M160.672 95.3633V97.2799H152.224V95.3633H160.672Z" fill="#DBE4F0"/>
<path d="M142.51 140.768L141.154 142.123L135.181 136.149L136.536 134.794L142.51 140.768Z" fill="#DBE4F0"/>
<path d="M97.5627 160.031H95.6461V151.584H97.5627V160.031Z" fill="#DBE4F0"/>
<path d="M52.1621 141.871L50.8068 140.516L56.7802 134.542L58.1355 135.898L52.1621 141.871Z" fill="#DBE4F0"/>
<path d="M32.8947 96.9219V95.0052H41.3423V96.9219H32.8947Z" fill="#DBE4F0"/>
<path d="M51.0569 51.5176L52.4122 50.1623L58.3856 56.1357L57.0303 57.491L51.0569 51.5176Z" fill="#DBE4F0"/>
<rect width="0.8" height="2.55556" transform="matrix(-1 0 0 1 97.1929 32.2539)" fill="#DBE4F0"/>
<rect width="1.02222" height="3.26543" transform="matrix(-0.995185 -0.0980171 -0.0980171 0.995185 103.389 32.5977)" fill="#DBE4F0"/>
<rect width="1.02222" height="3.26543" transform="matrix(-0.980785 -0.19509 -0.19509 0.980785 109.588 33.5498)" fill="#DBE4F0"/>
<rect width="1.02222" height="3.26543" transform="matrix(-0.95694 -0.290285 -0.290285 0.95694 115.661 35.1064)" fill="#DBE4F0"/>
<rect width="1.02222" height="3.26543" transform="matrix(-0.92388 -0.382683 -0.382683 0.92388 121.554 37.25)" fill="#DBE4F0"/>
<rect width="1.02222" height="3.26543" transform="matrix(-0.881921 -0.471397 -0.471397 0.881921 127.207 39.9619)" fill="#DBE4F0"/>
<rect width="1.02222" height="3.26543" transform="matrix(-0.83147 -0.55557 -0.55557 0.83147 132.569 43.2148)" fill="#DBE4F0"/>
<rect width="1.02222" height="3.26543" transform="matrix(-0.77301 -0.634393 -0.634393 0.77301 137.582 46.9775)" fill="#DBE4F0"/>
<rect width="1.02222" height="3.26543" transform="matrix(-0.707107 -0.707107 -0.707107 0.707107 142.203 51.2129)" fill="#DBE4F0"/>
<rect width="1.02222" height="3.26543" transform="matrix(-0.634393 -0.77301 -0.77301 0.634393 146.392 55.8818)" fill="#DBE4F0"/>
<rect width="1.02222" height="3.26543" transform="matrix(-0.55557 -0.83147 -0.83147 0.55557 150.099 60.9375)" fill="#DBE4F0"/>
<rect width="1.02222" height="3.26543" transform="matrix(-0.471397 -0.881921 -0.881921 0.471397 153.291 66.333)" fill="#DBE4F0"/>
<rect width="1.02222" height="3.26543" transform="matrix(-0.382683 -0.92388 -0.92388 0.382683 155.942 72.0156)" fill="#DBE4F0"/>
<rect width="1.02222" height="3.26543" transform="matrix(-0.290285 -0.95694 -0.95694 0.290285 158.019 77.9307)" fill="#DBE4F0"/>
<rect width="1.02222" height="3.26543" transform="matrix(-0.19509 -0.980785 -0.980785 0.19509 159.512 84.0205)" fill="#DBE4F0"/>
<rect width="1.02222" height="3.26543" transform="matrix(-0.0980171 -0.995185 -0.995185 0.0980171 160.396 90.2285)" fill="#DBE4F0"/>
<rect width="1.02222" height="3.26543" transform="matrix(0 -1 -1 0 160.67 96.4912)" fill="#DBE4F0"/>
<rect width="1.02222" height="3.26543" transform="matrix(0.0980171 -0.995185 -0.995185 -0.0980171 160.332 102.753)" fill="#DBE4F0"/>
<rect width="1.02222" height="3.26543" transform="matrix(0.19509 -0.980785 -0.980785 -0.19509 159.375 108.948)" fill="#DBE4F0"/>
<rect width="1.02222" height="3.26543" transform="matrix(0.290285 -0.95694 -0.95694 -0.290285 157.821 115.022)" fill="#DBE4F0"/>
<rect width="1.02222" height="3.26543" transform="matrix(0.382683 -0.92388 -0.92388 -0.382683 155.676 120.915)" fill="#DBE4F0"/>
<rect width="1.02222" height="3.26543" transform="matrix(0.471397 -0.881921 -0.881921 -0.471397 152.96 126.567)" fill="#DBE4F0"/>
<rect width="1.02222" height="3.26543" transform="matrix(0.55557 -0.83147 -0.83147 -0.55557 149.711 131.928)" fill="#DBE4F0"/>
<rect width="1.02222" height="3.26543" transform="matrix(0.634393 -0.77301 -0.77301 -0.634393 145.945 136.943)" fill="#DBE4F0"/>
<rect width="1.02222" height="3.26543" transform="matrix(0.707107 -0.707107 -0.707107 -0.707107 141.708 141.565)" fill="#DBE4F0"/>
<rect width="1.02222" height="3.26543" transform="matrix(0.77301 -0.634393 -0.634393 -0.77301 137.044 145.751)" fill="#DBE4F0"/>
<rect width="1.02222" height="3.26543" transform="matrix(0.83147 -0.55557 -0.55557 -0.83147 131.987 149.458)" fill="#DBE4F0"/>
<rect width="1.02222" height="3.26543" transform="matrix(0.881921 -0.471397 -0.471397 -0.881921 126.591 152.651)" fill="#DBE4F0"/>
<rect width="1.02222" height="3.26543" transform="matrix(0.92388 -0.382683 -0.382683 -0.92388 120.908 155.303)" fill="#DBE4F0"/>
<rect width="1.02222" height="3.26543" transform="matrix(0.95694 -0.290285 -0.290285 -0.95694 114.996 157.382)" fill="#DBE4F0"/>
<rect width="1.02222" height="3.26543" transform="matrix(0.980785 -0.19509 -0.19509 -0.980785 108.905 158.871)" fill="#DBE4F0"/>
<rect width="1.02222" height="3.26543" transform="matrix(0.995185 -0.0980171 -0.0980171 -0.995185 102.698 159.76)" fill="#DBE4F0"/>
<rect width="1.02222" height="3.26543" transform="matrix(1 0 0 -1 96.4335 160.032)" fill="#DBE4F0"/>
<rect width="1.02222" height="3.26543" transform="matrix(0.995185 0.0980171 0.0980171 -0.995185 90.1747 159.689)" fill="#DBE4F0"/>
<rect width="1.02222" height="3.26543" transform="matrix(0.980785 0.19509 0.19509 -0.980785 83.9752 158.738)" fill="#DBE4F0"/>
<rect width="1.02222" height="3.26543" transform="matrix(0.95694 0.290285 0.290285 -0.95694 77.902 157.181)" fill="#DBE4F0"/>
<rect width="1.02222" height="3.26543" transform="matrix(0.92388 0.382683 0.382683 -0.92388 72.0095 155.035)" fill="#DBE4F0"/>
<rect width="1.02222" height="3.26543" transform="matrix(0.881921 0.471397 0.471397 -0.881921 66.3567 152.325)" fill="#DBE4F0"/>
<rect width="1.02222" height="3.26543" transform="matrix(0.83147 0.55557 0.55557 -0.83147 60.9983 149.072)" fill="#DBE4F0"/>
<rect width="1.02222" height="3.26543" transform="matrix(0.77301 0.634393 0.634393 -0.77301 55.9812 145.31)" fill="#DBE4F0"/>
<rect width="1.02222" height="3.26543" transform="matrix(0.707107 0.707107 0.707107 -0.707107 51.3606 141.074)" fill="#DBE4F0"/>
<rect width="1.02222" height="3.26543" transform="matrix(0.634393 0.77301 0.77301 -0.634393 47.1714 136.405)" fill="#DBE4F0"/>
<rect width="1.02222" height="3.26543" transform="matrix(0.55557 0.83147 0.83147 -0.55557 43.4647 131.349)" fill="#DBE4F0"/>
<rect width="1.02222" height="3.26543" transform="matrix(0.471397 0.881921 0.881921 -0.471397 40.2723 125.954)" fill="#DBE4F0"/>
<rect width="1.02222" height="3.26543" transform="matrix(0.382683 0.92388 0.92388 -0.382683 37.6215 120.271)" fill="#DBE4F0"/>
<rect width="1.02222" height="3.26543" transform="matrix(0.290285 0.95694 0.95694 -0.290285 35.5439 114.356)" fill="#DBE4F0"/>
<rect width="1.02222" height="3.26543" transform="matrix(0.19509 0.980785 0.980785 -0.19509 34.0513 108.267)" fill="#DBE4F0"/>
<rect width="1.02222" height="3.26543" transform="matrix(0.0980171 0.995185 0.995185 -0.0980171 33.1675 102.06)" fill="#DBE4F0"/>
<rect width="1.02222" height="3.26543" transform="matrix(0 1 1 0 32.8927 95.7959)" fill="#DBE4F0"/>
<rect width="1.02222" height="3.26543" transform="matrix(-0.0980171 0.995185 0.995185 0.0980171 33.2356 89.5352)" fill="#DBE4F0"/>
<rect width="1.02222" height="3.26543" transform="matrix(-0.19509 0.980785 0.980785 0.19509 34.1877 83.3389)" fill="#DBE4F0"/>
<rect width="1.02222" height="3.26543" transform="matrix(-0.290285 0.95694 0.95694 0.290285 35.7419 77.2646)" fill="#DBE4F0"/>
<rect width="1.02222" height="3.26543" transform="matrix(-0.382683 0.92388 0.92388 0.382683 37.8871 71.373)" fill="#DBE4F0"/>
<rect width="1.02222" height="3.26543" transform="matrix(-0.471397 0.881921 0.881921 0.471397 40.6034 65.7197)" fill="#DBE4F0"/>
<rect width="1.02222" height="3.26543" transform="matrix(-0.55557 0.83147 0.83147 0.55557 43.8524 60.3594)" fill="#DBE4F0"/>
<rect width="1.02222" height="3.26543" transform="matrix(-0.634393 0.77301 0.77301 0.634393 47.6184 55.3438)" fill="#DBE4F0"/>
<rect width="1.02222" height="3.26543" transform="matrix(-0.707107 0.707107 0.707107 0.707107 51.855 50.7217)" fill="#DBE4F0"/>
<rect width="1.02222" height="3.26543" transform="matrix(-0.77301 0.634393 0.634393 0.77301 56.5195 46.5361)" fill="#DBE4F0"/>
<rect width="1.02222" height="3.26543" transform="matrix(-0.83147 0.55557 0.55557 0.83147 61.5767 42.8291)" fill="#DBE4F0"/>
<rect width="1.02222" height="3.26543" transform="matrix(-0.881921 0.471397 0.471397 0.881921 66.9722 39.6348)" fill="#DBE4F0"/>
<rect width="1.02222" height="3.26543" transform="matrix(-0.92388 0.382683 0.382683 0.92388 72.6553 36.9854)" fill="#DBE4F0"/>
<rect width="1.02222" height="3.26543" transform="matrix(-0.95694 0.290285 0.290285 0.95694 78.5675 34.9053)" fill="#DBE4F0"/>
<rect width="1.02222" height="3.26543" transform="matrix(-0.980785 0.19509 0.19509 0.980785 84.6583 33.416)" fill="#DBE4F0"/>
<rect width="1.02222" height="3.26543" transform="matrix(-0.995185 0.0980171 0.0980171 0.995185 90.8651 32.5283)" fill="#DBE4F0"/>
<path d="M80.2677 39.2479C80.1834 39.7189 79.6303 39.9336 79.2504 39.6427L75.6397 36.8787C75.2439 36.5756 75.3321 35.9561 75.7969 35.7757L80.2082 34.0636C80.6729 33.8832 81.156 34.281 81.0682 34.7717L80.2677 39.2479Z" fill="#1C1C26"/>
<defs>
<filter id="filter0_ii_1329_56238" x="0" y="-1" width="189.73" height="191.729" filterUnits="userSpaceOnUse" color-interpolation-filters="sRGB">
<feFlood flood-opacity="0" result="BackgroundImageFix"/>
<feBlend mode="normal" in="SourceGraphic" in2="BackgroundImageFix" result="shape"/>
<feColorMatrix in="SourceAlpha" type="matrix" values="0 0 0 0 0 0 0 0 0 0 0 0 0 0 0 0 0 0 127 0" result="hardAlpha"/>
<feOffset dy="1"/>
<feGaussianBlur stdDeviation="1"/>
<feComposite in2="hardAlpha" operator="arithmetic" k2="-1" k3="1"/>
<feColorMatrix type="matrix" values="0 0 0 0 0 0 0 0 0 0 0 0 0 0 0 0 0 0 0.08 0"/>
<feBlend mode="normal" in2="shape" result="effect1_innerShadow_1329_56238"/>
<feColorMatrix in="SourceAlpha" type="matrix" values="0 0 0 0 0 0 0 0 0 0 0 0 0 0 0 0 0 0 127 0" result="hardAlpha"/>
<feOffset dy="-1"/>
<feGaussianBlur stdDeviation="1"/>
<feComposite in2="hardAlpha" operator="arithmetic" k2="-1" k3="1"/>
<feColorMatrix type="matrix" values="0 0 0 0 0 0 0 0 0 0 0 0 0 0 0 0 0 0 0.17 0"/>
<feBlend mode="overlay" in2="effect1_innerShadow_1329_56238" result="effect2_innerShadow_1329_56238"/>
</filter>
<radialGradient id="paint0_angular_1329_56238" cx="0" cy="0" r="1" gradientUnits="userSpaceOnUse" gradientTransform="translate(94.8672 94.8649) rotate(90) scale(92)">
<stop offset="0.231007" stop-color="#4AC3E3"/>
<stop offset="0.421007" stop-color="#BEE9C8"/>
<stop offset="0.651682" stop-color="#F9A991"/>
<stop offset="0.815244" stop-color="#EC6A79"/>
<stop offset="0.990761" stop-color="#B5BEEB"/>
</radialGradient>
</defs>
</svg>
